<svg xmlns="http://www.w3.org/2000/svg" viewBox="0 0 64 64" width="64" height="64">
  <defs>
    <linearGradient id="plateGradient" x1="0%" y1="0%" x2="100%" y2="100%">
      <stop offset="0%" style="stop-color:#ff6347;stop-opacity:1" />
      <stop offset="100%" style="stop-color:#ff4500;stop-opacity:1" />
    </linearGradient>
    <linearGradient id="foodGradient" x1="0%" y1="0%" x2="100%" y2="100%">
      <stop offset="0%" style="stop-color:#ffd700;stop-opacity:1" />
      <stop offset="100%" style="stop-color:#ffb347;stop-opacity:1" />
    </linearGradient>
    <radialGradient id="plateShine" cx="30%" cy="30%" r="60%">
      <stop offset="0%" style="stop-color:#ffffff;stop-opacity:0.3" />
      <stop offset="100%" style="stop-color:#ffffff;stop-opacity:0" />
    </radialGradient>
  </defs>
  
  <!-- Background circle -->
  <circle cx="32" cy="32" r="30" fill="#1a1a1a" stroke="#ff6347" stroke-width="2"/>
  
  <!-- Plate -->
  <ellipse cx="32" cy="45" rx="22" ry="4" fill="url(#plateGradient)" opacity="0.8"/>
  <ellipse cx="32" cy="43" rx="20" ry="3" fill="url(#plateGradient)"/>
  
  <!-- Food items -->
  <!-- Main dish -->
  <ellipse cx="32" cy="38" rx="12" ry="6" fill="url(#foodGradient)"/>
  <ellipse cx="32" cy="36" rx="10" ry="4" fill="#ffa500"/>
  
  <!-- Side items -->
  <circle cx="25" cy="40" r="3" fill="#90EE90"/>
  <circle cx="39" cy="40" r="3" fill="#90EE90"/>
  <circle cx="28" cy="32" r="2" fill="#ff6b6b"/>
  <circle cx="36" cy="32" r="2" fill="#ff6b6b"/>
  
  <!-- Fork and knife -->
  <!-- Fork -->
  <line x1="12" y1="15" x2="12" y2="35" stroke="#C0C0C0" stroke-width="1.5"/>
  <line x1="10" y1="15" x2="10" y2="20" stroke="#C0C0C0" stroke-width="1"/>
  <line x1="12" y1="15" x2="12" y2="20" stroke="#C0C0C0" stroke-width="1"/>
  <line x1="14" y1="15" x2="14" y2="20" stroke="#C0C0C0" stroke-width="1"/>
  
  <!-- Knife -->
  <line x1="52" y1="15" x2="52" y2="35" stroke="#C0C0C0" stroke-width="1.5"/>
  <path d="M50 15 L54 15 L52 20 Z" fill="#C0C0C0"/>
  
  <!-- Plate shine effect -->
  <ellipse cx="32" cy="38" rx="15" ry="8" fill="url(#plateShine)"/>
  
  <!-- Steam effect -->
  <path d="M28 28 Q30 24 28 20" stroke="#ffffff" stroke-width="1" fill="none" opacity="0.6"/>
  <path d="M32 28 Q34 24 32 20" stroke="#ffffff" stroke-width="1" fill="none" opacity="0.6"/>
  <path d="M36 28 Q38 24 36 20" stroke="#ffffff" stroke-width="1" fill="none" opacity="0.6"/>
</svg>